<svg xmlns="http://www.w3.org/2000/svg" viewBox="0 0 32 32" fill="none">
  <circle cx="16" cy="16" r="16" fill="#25D366"/>
  <path fill="#fff" d="M24.2 7.9A10.1 10.1 0 0 0 8 20.1l-1.1 4.4 4.5-1.2A10.1 10.1 0 1 0 24.2 7.9Zm-8.1 14.3c-1.6 0-3.2-.5-4.4-1.5l-.3-.2-2.7.7.7-2.6-.2-.3a7.7 7.7 0 1 1 6.9 3.9Zm4.2-5.8c-.2-.1-1.3-.6-1.5-.7-.2 0-.3-.1-.5.1l-.7.9c-.1.1-.2.2-.4.1a6.2 6.2 0 0 1-3-2.6c-.1-.2 0-.3.1-.4l.3-.4.2-.3c.1-.1 0-.3 0-.4l-.7-1.6c-.2-.4-.3-.3-.5-.3h-.4c-.2 0-.4.1-.6.3-.2.2-.8.8-.8 1.9s.9 2.2 1 2.4c.1.1 1.7 2.7 4.2 3.7.6.3 1 .4 1.4.5.6.2 1.1.2 1.5.1.5 0 1.3-.5 1.5-1 .2-.6.2-1 .2-1.1 0-.1-.2-.2-.4-.3Z"/>
</svg>
